<svg width="253" height="269" viewBox="0 0 253 269" fill="none" xmlns="http://www.w3.org/2000/svg">
<path d="M105.417 168.125L160.128 134.5L105.417 100.875V168.125ZM227.278 80.3638C228.649 85.6317 229.597 92.6929 230.23 101.66C230.968 110.626 231.284 118.36 231.284 125.085L231.917 134.5C231.917 159.046 230.23 177.092 227.278 188.636C224.643 198.724 218.529 205.225 209.041 208.027C204.087 209.484 195.021 210.493 181.106 211.165C167.402 211.95 154.857 212.286 143.261 212.286L126.5 212.958C82.3303 212.958 54.8166 211.165 43.9587 208.027C34.4712 205.225 28.357 198.724 25.7216 188.636C24.3512 183.368 23.4024 176.307 22.7699 167.34C22.032 158.374 21.7158 150.64 21.7158 143.915L21.0833 134.5C21.0833 109.954 22.7699 91.9083 25.7216 80.3638C28.357 70.2763 34.4712 63.7754 43.9587 60.9733C48.9133 59.5163 57.9791 58.5075 71.8941 57.835C85.5983 57.0504 98.1428 56.7142 109.739 56.7142L126.5 56.0417C170.67 56.0417 198.183 57.835 209.041 60.9733C218.529 63.7754 224.643 70.2763 227.278 80.3638Z" fill="#FF0000"/>
<path d="M160 134.5L105.5 168.5L105.5 101L160 134.5Z" fill="white"/>
</svg>
